<svg xmlns="http://www.w3.org/2000/svg" width="180" height="20" viewBox="0 0 180 20">
    <g fill="none" fill-rule="evenodd">
        <g fill="#FFF">
            <g>
                <g>
                    <path d="M172.003 16.111c-1.721 0-2.97-1.28-2.97-3.042 0-1.762 1.249-3.042 2.97-3.042 1.72 0 2.97 1.28 2.97 3.042 0 1.762-1.25 3.042-2.97 3.042zm2.535-13.984v4.2c-.955-.512-2.042-.78-3.166-.78-4.3 0-7.42 3.164-7.42 7.522 0 4.366 3.12 7.535 7.42 7.535 1.499 0 2.906-.522 3.976-1.46l.441.998h3.874V.907l-5.125 1.22zM156.84 13.83c0 1.31-.651 2.06-1.787 2.06-1.146 0-1.802-.75-1.802-2.06V5.935l-5.178 1.22v6.882c0 3.92 2.805 6.554 6.98 6.554 4.166 0 6.966-2.634 6.966-6.554V5.934l-5.179 1.22v6.677zM138.203 16.032c-1.68 0-2.852-1.218-2.852-2.963s1.172-2.963 2.852-2.963 2.852 1.219 2.852 2.964c0 1.745-1.172 2.962-2.852 2.962m0-10.484c-4.58 0-7.903 3.163-7.903 7.52 0 4.36 3.323 7.522 7.903 7.522s7.903-3.163 7.903-7.521c0-4.358-3.323-7.52-7.903-7.52M122.538 20.142L127.938 20.142 127.938.911 122.538 2.125zM111.221 15.549c-2.387 0-4.119-1.89-4.119-4.492 0-2.625 1.732-4.532 4.12-4.532 1.554 0 2.892.87 3.579 2.328l5.195-1.248c-1.291-3.77-4.658-6.11-8.786-6.11-5.507 0-9.66 4.11-9.66 9.562 0 5.435 4.153 9.533 9.66 9.533 4.538 0 8.108-2.83 9.097-7.208l.034-.147h-5.599c-.645 1.449-1.96 2.314-3.52 2.314M87.059 10.363h-3.15V6.491h3.15c1.069 0 1.935.867 1.935 1.936 0 1.07-.866 1.936-1.935 1.936zm4.556 3.28c2.134-.893 3.22-2.827 3.22-5.28 0-2.321-.846-4.037-2.515-5.103-1.55-.99-3.563-1.451-6.332-1.451h-7.752v18.37h5.762v-5.133h2.07l3.51 5.133h6.124l-4.644-6.302.557-.234zM66.712 13.2L75.085 13.2 75.085 8.788 66.712 8.788 66.712 6.311 75.174 6.311 75.174 1.809 60.861 1.809 60.861 20.179 75.355 20.179 75.355 15.676 66.712 15.676zM48.526 13.888L44.205 1.808 38.083 1.808 45.285 20.179 51.768 20.179 58.97 1.808 52.848 1.808zM34.031 1.808l7.203 18.37h-6.122l-.87-2.43h-6.903l-.87 2.43h-6.122l7.203-18.37h6.481zM30.79 7.596l-2.052 5.739h4.105L30.79 7.596zM12.514 11.64L5.672 1.808 0 1.808 0 20.179 5.942 20.179 5.942 10.347 12.785 20.179 18.457 20.179 18.457 1.808 12.514 1.808z" transform="translate(-152 -68) translate(0 38) translate(152 29)"/>
                </g>
            </g>
        </g>
    </g>
</svg>
